Complete name : Made.In.Chelsea.S05E01.PDTV.x264-W33D.mp4
Format : MPEG-4
Format profile : Base Media
Codec ID : isom
File size : 203 MiB
Duration : 47mn 52s
Overall bit rate mode : Variable
Overall bit rate : 594 Kbps
Part/Position : 5
Track name/Position : 1


Video
ID : 1
Format : AVC
Format/Info : Advanced Video Codec
Format profile : High@L3.1
Format settings, CABAC : Yes
Format settings, ReFrames : 4 frames
Codec ID : avc1
Codec ID/Info : Advanced Video Coding
Duration : 47mn 52s
Bit rate : 448 Kbps
Maximum bit rate : 2 409 Kbps
Width : 704 pixels
Height : 384 pixels
Display aspect ratio : 1.85:1
Frame rate mode : Constant
Frame rate : 25.000 fps
Color space : YUV
Chroma subsampling : 4:2:0
Bit depth : 8 bits
Scan type : Progressive
Bits/(Pixel*Frame) : 0.066
Stream size : 153 MiB (75%)
Writing library : x264 core 130 r2273 b3065e6
Language : English


Audio
ID : 2
Format : AAC
Format/Info : Advanced Audio Codec
Format profile : LC
Codec ID : 40
Duration : 47mn 52s
Bit rate mode : Variable
Bit rate : 138 Kbps
Maximum bit rate : 152 Kbps
Channel(s) : 2 channels
Channel positions : Front: L R
Sampling rate : 48.0 KHz
Compression mode : Lossy
Stream size : 47.3 MiB (23%)
Language : English